<?xml version="1.0" standalone="no"?>
<svg xmlns:xlink="http://www.w3.org/1999/xlink" id="wave" style="transform:rotate(0deg); transition: 0.3s" viewBox="0 0 1440 170" version="1.1" xmlns="http://www.w3.org/2000/svg"><defs><linearGradient id="sw-gradient-0" x1="0" x2="0" y1="1" y2="0"><stop stop-color="rgba(116, 13, 195, 1)" offset="0%"/><stop stop-color="rgba(116, 13, 195, 1)" offset="100%"/></linearGradient></defs><path style="transform:translate(0, 0px); opacity:1" fill="url(#sw-gradient-0)" d="M0,102L80,107.7C160,113,320,125,480,133.2C640,142,800,147,960,124.7C1120,102,1280,51,1440,42.5C1600,34,1760,68,1920,76.5C2080,85,2240,68,2400,76.5C2560,85,2720,119,2880,133.2C3040,147,3200,142,3360,124.7C3520,108,3680,79,3840,62.3C4000,45,4160,40,4320,56.7C4480,74,4640,113,4800,113.3C4960,113,5120,74,5280,56.7C5440,40,5600,45,5760,45.3C5920,45,6080,40,6240,53.8C6400,68,6560,102,6720,107.7C6880,113,7040,91,7200,82.2C7360,74,7520,79,7680,79.3C7840,79,8000,74,8160,73.7C8320,74,8480,79,8640,82.2C8800,85,8960,85,9120,79.3C9280,74,9440,62,9600,59.5C9760,57,9920,62,10080,70.8C10240,79,10400,91,10560,104.8C10720,119,10880,136,11040,133.2C11200,130,11360,108,11440,96.3L11520,85L11520,170L11440,170C11360,170,11200,170,11040,170C10880,170,10720,170,10560,170C10400,170,10240,170,10080,170C9920,170,9760,170,9600,170C9440,170,9280,170,9120,170C8960,170,8800,170,8640,170C8480,170,8320,170,8160,170C8000,170,7840,170,7680,170C7520,170,7360,170,7200,170C7040,170,6880,170,6720,170C6560,170,6400,170,6240,170C6080,170,5920,170,5760,170C5600,170,5440,170,5280,170C5120,170,4960,170,4800,170C4640,170,4480,170,4320,170C4160,170,4000,170,3840,170C3680,170,3520,170,3360,170C3200,170,3040,170,2880,170C2720,170,2560,170,2400,170C2240,170,2080,170,1920,170C1760,170,1600,170,1440,170C1280,170,1120,170,960,170C800,170,640,170,480,170C320,170,160,170,80,170L0,170Z"/></svg>